curl_17s
version=1
nRows=357
nColumns=3
inDegrees=yes
endheader
time	r_shoulder_elev	r_elbow_flex
8.7900	41.623016	128.000000
8.8000	41.785222	128.000000
8.8100	41.978251	128.000000
8.8200	42.201234	128.000000
8.8300	42.452983	128.000000
8.8400	42.732013	128.000000
8.8500	43.036560	128.000000
8.8600	43.364602	128.000000
8.8700	43.713885	128.000000
8.8800	44.081948	128.000000
8.8900	44.466149	128.000000
8.9000	44.863700	128.000000
8.9100	45.271689	128.000000
8.9200	45.687119	128.000000
8.9300	46.106930	128.000000
8.9400	46.528037	128.000000
8.9500	46.947355	128.000000
8.9600	47.361830	128.000000
8.9700	47.768467	128.000000
8.9800	48.164355	128.000000
8.9900	48.546697	128.000000
9.0000	48.912825	128.000000
9.0100	49.260229	128.000000
9.0200	49.586570	128.000000
9.0300	49.889701	128.000000
9.0400	50.167679	128.000000
9.0500	50.418778	128.000000
9.0600	50.641496	128.000000
9.0700	50.834564	128.000000
9.0800	50.996950	128.000000
9.0900	51.127859	128.000000
9.1000	51.226733	128.000000
9.1100	51.293248	128.000000
9.1200	51.327307	128.000000
9.1300	51.329033	126.837583
9.1400	51.298758	125.678613
9.1500	51.237010	124.567365
9.1600	51.144501	123.505371
9.1700	51.022111	122.493207
9.1800	50.870871	121.530495
9.1900	50.691943	120.615930
9.2000	50.486606	119.747324
9.2100	50.256232	118.921665
9.2200	50.002272	118.135200
9.2300	49.726229	117.383527
9.2400	49.429645	116.661698
9.2500	49.114081	115.964340
9.2600	48.781095	115.285769
9.2700	48.432229	114.620119
9.2800	48.068992	113.961463
9.2900	47.692842	113.303934
9.3000	47.305175	112.641835
9.3100	46.907316	111.969746
9.3200	46.500503	111.282613
9.3300	46.085882	110.575823
9.3400	45.664503	109.845272
9.3500	45.237313	109.087406
9.3600	44.805155	108.299251
9.3700	44.368770	107.478429
9.3800	43.928800	106.623152
9.3900	43.485790	105.732206
9.4000	43.040200	104.804919
9.4100	42.592407	103.841118
9.4200	42.142723	102.841078
9.4300	41.691400	101.805458
9.4400	41.238643	100.735239
9.4500	40.784627	99.631653
9.4600	40.329506	98.496113
9.4700	39.873423	97.330143
9.4800	39.416531	96.135310
9.4900	38.958993	94.913162
9.5000	38.501000	93.665174
9.5100	38.042776	92.392691
9.5200	37.584583	91.096895
9.5300	37.126732	89.778765
9.5400	36.669579	88.439056
9.5500	36.213532	87.078286
9.5600	35.759050	85.696727
9.5700	35.306640	84.294415
9.5800	34.856853	82.871156
9.5900	34.410284	81.426552
9.6000	33.967563	79.960028
9.6100	33.529349	78.470865
9.6200	33.096323	76.958238
9.6300	32.669183	75.421267
9.6400	32.248629	73.859056
9.6500	31.835362	72.270747
9.6600	31.430068	70.655568
9.6700	31.033415	69.012886
9.6800	30.646037	67.342252
9.6900	30.268533	65.643449
9.7000	29.901453	63.916536
9.7100	29.545289	62.161885
9.7200	29.200472	60.380215
9.7300	28.867362	58.572622
9.7400	28.546242	56.740594
9.7500	28.237312	54.886035
9.7600	27.940687	53.011260
9.7700	27.656391	51.119001
9.7800	27.384360	49.212398
9.7900	27.124433	47.294975
9.8000	26.876362	45.370624
9.8100	26.639808	43.443565
9.8200	26.414348	41.518313
9.8300	26.199475	39.599629
9.8400	25.994613	37.692472
9.8500	25.799115	35.801945
9.8600	25.612278	33.933237
9.8700	25.433349	32.091562
9.8800	25.261538	30.282100
9.8900	25.096027	28.509940
9.9000	24.935984	26.780015
9.9100	24.780574	25.097051
9.9200	24.628969	23.465512
9.9300	24.480364	21.889551
9.9400	24.333988	20.372970
9.9500	24.189113	18.919177
9.9600	24.045067	17.531160
9.9700	23.901243	16.211457
9.9800	23.757109	14.962139
9.9900	23.612213	13.784798
10.0000	23.466191	12.680542
10.0100	23.318772	11.649992
10.0200	23.169780	10.693293
10.0300	23.019135	9.810124
10.0400	22.866854	8.999713
10.0500	22.713049	8.260862
10.0600	22.557925	7.591972
10.0700	22.401771	6.991071
10.0800	22.244960	6.455848
10.0900	22.087937	5.983685
10.1000	21.931215	5.571697
10.1100	21.775364	5.216766
10.1200	21.621002	4.915584
10.1300	21.468789	4.664688
10.1400	21.319410	4.460502
10.1500	21.173576	4.299374
10.1600	21.032004	4.177615
10.1700	20.895415	4.091535
10.1800	20.764524	4.037482
10.1900	20.640030	4.011875
10.2000	20.522609	4.011233
10.2100	20.412908	4.032213
10.2200	20.311540	4.071634
10.2300	20.219074	4.126506
10.2400	20.136034	4.194053
10.2500	20.062893	4.271737
10.2600	20.000070	4.357276
10.2700	19.947927	4.448663
10.2800	19.906764	4.544178
10.2900	19.876821	4.642403
10.3000	19.858271	4.742229
10.3100	19.851227	4.842864
10.3200	19.855730	4.943839
10.3300	19.871761	5.045005
10.3400	19.899231	5.146539
10.3500	19.937986	5.248934
10.3600	19.987808	5.352999
10.3700	20.048413	5.459849
10.3800	20.119457	5.570894
10.3900	20.200534	5.687831
10.4000	20.291180	5.812624
10.4100	20.390873	5.947495
10.4200	20.499041	6.094900
10.4300	20.615057	6.257513
10.4400	20.738252	6.438208
10.4500	20.867911	6.640030
10.4600	21.003280	6.866179
10.4700	21.143569	7.119981
10.4800	21.287956	7.404864
10.4900	21.435593	7.724333
10.5000	21.585610	8.081943
10.5100	21.737116	8.481270
10.5200	21.889211	8.925882
10.5300	22.040982	9.419313
10.5400	22.191520	9.965032
10.5500	22.339913	10.566409
10.5600	22.485265	11.226691
10.5700	22.626694	11.948965
10.5800	22.763342	12.736130
10.5900	22.894384	13.590862
10.6000	23.019034	14.515588
10.6100	23.136557	15.512449
10.6200	23.246273	16.583273
10.6300	23.347571	17.729547
10.6400	23.439914	18.952383
10.6500	23.522851	20.252497
10.6600	23.596026	21.630184
10.6700	23.659182	23.085294
10.6800	23.712177	24.617217
10.6900	23.754984	26.224866
10.7000	23.787701	27.906669
10.7100	23.810556	29.660560
10.7200	23.823908	31.483985
10.7300	23.828253	33.373904
10.7400	23.824223	35.326799
10.7500	23.812583	37.338700
10.7600	23.794230	39.405202
10.7700	23.770187	41.521499
10.7800	23.741595	43.682417
10.7900	23.709706	45.882461
10.8000	23.675868	48.115855
10.8100	23.641514	50.376603
10.8200	23.608147	52.658540
10.8300	23.577322	54.955391
10.8400	23.550629	57.260838
10.8500	23.529670	59.568580
10.8600	23.516041	61.872400
10.8700	23.511311	64.166225
10.8800	23.516996	66.444190
10.8900	23.534539	68.700700
10.9000	23.565289	70.930476
10.9100	23.610477	73.128616
10.9200	23.671196	75.290633
10.9300	23.748381	77.412495
10.9400	23.842792	79.490657
10.9500	23.954998	81.522089
10.9600	24.085363	83.504289
10.9700	24.234035	85.435296
10.9800	24.400941	87.313696
10.9900	24.585779	89.138611
11.0000	24.788019	90.909698
11.0100	25.006906	92.627121
11.0200	25.241467	94.291536
11.0300	25.490520	95.904060
11.0400	25.752690	97.466234
11.0500	26.026426	98.979986
11.0600	26.310022	100.447593
11.0700	26.601642	101.871630
11.0800	26.899346	103.254926
11.0900	27.201117	104.600518
11.1000	27.504897	105.911595
11.1100	27.808611	107.191459
11.1200	28.110203	108.443465
11.1300	28.407667	109.670985
11.1400	28.699075	110.877356
11.1500	28.982609	112.065838
11.1600	29.256588	113.239574
11.1700	29.519489	114.401556
11.1800	29.769973	115.554582
11.1900	30.006902	116.701233
11.2000	30.229353	117.843840
11.2100	30.436633	118.984463
11.2200	30.628280	120.124867
11.2300	30.804073	121.266508
11.2400	30.964027	122.410521
11.2500	31.108390	123.557708
11.2600	31.237634	124.708538
11.2700	31.352443	125.863142
11.2800	31.453696	127.021321
11.2900	31.542452	128.000000
11.3000	31.619924	128.000000
11.3100	31.687459	128.000000
11.3200	31.746509	128.000000
11.3300	31.798610	128.000000
11.3400	31.845348	128.000000
11.3500	31.888335	128.000000
11.3600	31.929180	128.000000
11.3700	31.969463	128.000000
11.3800	32.010706	128.000000
11.3900	32.054350	128.000000
11.4000	32.101734	128.000000
11.4100	32.154073	128.000000
11.4200	32.212439	128.000000
11.4300	32.277748	128.000000
11.4400	32.350748	128.000000
11.4500	32.432008	128.000000
11.4600	32.521916	128.000000
11.4700	32.620675	128.000000
11.4800	32.728304	128.000000
11.4900	32.844642	128.000000
11.5000	32.969357	128.000000
11.5100	33.101954	128.000000
11.5200	33.241792	128.000000
11.5300	33.388091	128.000000
11.5400	33.539956	128.000000
11.5500	33.696392	128.000000
11.5600	33.856323	128.000000
11.5700	34.018614	128.000000
11.5800	34.182088	128.000000
11.5900	34.345548	128.000000
11.6000	34.507797	128.000000
11.6100	34.667654	128.000000
11.6200	34.823974	128.000000
11.6300	34.975663	128.000000
11.6400	35.121691	128.000000
11.6500	35.261104	128.000000
11.6600	35.393037	128.000000
11.6700	35.516718	128.000000
11.6800	35.631476	128.000000
11.6900	35.736744	128.000000
11.7000	35.832057	128.000000
11.7100	35.917055	128.000000
11.7200	35.991478	128.000000
11.7300	36.055161	128.000000
11.7400	36.108026	128.000000
11.7500	36.150081	128.000000
11.7600	36.181401	128.000000
11.7700	36.202130	128.000000
11.7800	36.212461	128.000000
11.7900	36.212636	128.000000
11.8000	36.202928	128.000000
11.8100	36.183638	128.000000
11.8200	36.155082	128.000000
11.8300	36.117586	128.000000
11.8400	36.071480	128.000000
11.8500	36.017088	128.000000
11.8600	35.954728	128.000000
11.8700	35.884704	128.000000
11.8800	35.807306	128.000000
11.8900	35.722810	128.000000
11.9000	35.631472	128.000000
11.9100	35.533536	128.000000
11.9200	35.429228	128.000000
11.9300	35.318767	128.000000
11.9400	35.202358	128.000000
11.9500	35.080206	128.000000
11.9600	34.952512	128.000000
11.9700	34.819483	128.000000
11.9800	34.681335	128.000000
11.9900	34.538295	126.790904
12.0000	34.390609	125.271839
12.0100	34.238545	123.733068
12.0200	34.082397	122.176719
12.0300	33.922483	120.604856
12.0400	33.759152	119.019449
12.0500	33.592784	117.422359
12.0600	33.423783	115.815313
12.0700	33.252584	114.199886
12.0800	33.079643	112.577488
12.0900	32.905434	110.949346
12.1000	32.730446	109.316497
12.1100	32.555174	107.679780
12.1200	32.380112	106.039830
12.1300	32.205746	104.397081
12.1400	32.032545	102.751763
12.1500	31.860954	101.103911
12.1600	31.691383	99.453373
12.1700	31.524205	97.799821
12.1800	31.359739	96.142760
12.1900	31.198256	94.481552
12.2000	31.039962	92.815430
12.2100	30.885003	91.143516
12.2200	30.733458	89.464851
12.2300	30.585337	87.778411
12.2400	30.440586	86.083136
12.2500	30.299083	84.377959
12.2600	30.160645	82.661830
12.2700	30.025032	80.933746
12.2800	29.891952	79.192779
12.2900	29.761068	77.438105
12.3000	29.632006	75.669032
12.3100	29.504362	73.885029
12.3200	29.377714	72.085747
12.3300	29.251626	70.271049
12.3400	29.125663	68.441026
12.3500	28.999392	66.596021
